<svg xmlns="http://www.w3.org/2000/svg" viewBox="0 0 512 512">
  <defs>
    <linearGradient id="bgD" x1="0" y1="0" x2="1" y2="1">
      <stop offset="0%" stop-color="#1a1a2e"/>
      <stop offset="100%" stop-color="#2a1a2e"/>
    </linearGradient>
    <linearGradient id="goldD" x1="0" y1="0" x2="1" y2="1">
      <stop offset="0%" stop-color="#f2c94c"/>
      <stop offset="100%" stop-color="#d4a017"/>
    </linearGradient>
  </defs>
  <rect width="512" height="512" rx="96" fill="url(#bgD)"/>
  <g transform="translate(256,256)">
    <circle cx="0" cy="0" r="240" fill="none" stroke="rgba(242,201,76,0.06)" stroke-width="2"/>
    <circle cx="0" cy="0" r="200" fill="none" stroke="rgba(242,201,76,0.1)" stroke-width="1.5"/>
    <g opacity="0.5" stroke="#f2c94c" stroke-width="3" stroke-linecap="round">
      <line x1="0" y1="-240" x2="0" y2="-195"/>
      <line x1="0" y1="195" x2="0" y2="240"/>
      <line x1="-240" y1="0" x2="-195" y2="0"/>
      <line x1="195" y1="0" x2="240" y2="0"/>
    </g>
    <g opacity="0.25" stroke="#f2c94c" stroke-width="2" stroke-linecap="round">
      <line x1="-170" y1="-170" x2="-138" y2="-138"/>
      <line x1="138" y1="138" x2="170" y2="170"/>
      <line x1="138" y1="-138" x2="170" y2="-170"/>
      <line x1="-170" y1="170" x2="-138" y2="138"/>
    </g>
    <rect x="-36" y="-130" width="72" height="260" rx="18" fill="url(#goldD)"/>
    <rect x="-130" y="-36" width="260" height="72" rx="18" fill="url(#goldD)"/>
  </g>
</svg>
